<?xml version="1.0" encoding="utf-8"?>
<!-- Generator: Adobe Illustrator 23.0.3, SVG Export Plug-In . SVG Version: 6.00 Build 0)  -->
<svg version="1.2" baseProfile="tiny" id="Слой_1"
	 xmlns="http://www.w3.org/2000/svg" xmlns:xlink="http://www.w3.org/1999/xlink" x="0px" y="0px" viewBox="0 0 1000 400"
	 xml:space="preserve">
<path fill="#2005E5" stroke="#000000" stroke-miterlimit="10" d="M899.5,400.5H101.5c-55.8,0-101-45.2-101-101V101.5
	c0-55.8,45.2-101,101-101h798.1c55.8,0,101,45.2,101,101v198.1C1000.5,355.3,955.3,400.5,899.5,400.5z"/>
<path fill="#07042D" stroke="#000000" stroke-miterlimit="10" d="M225.5,315.5c32.2,42.2,185-2.4,186-39c0.7-26.7-79.9-22.5-155-94
	c-51.2-48.7-102.4-135.1-77-177c37.4-61.8,254.4-47.5,306,54c40.2,79-34.7,181.7-126,307c-35,48-83.6,114.6-114,104
	c-45.1-15.8-24-192-25-192C220.2,278.5,214.3,300.7,225.5,315.5z"/>
<path fill="#07042D" stroke="#000000" stroke-miterlimit="10" d="M496.5-161.5c247.3,175.9,283.1,254.2,268,293
	c-6.5,16.7-18.8,16.8-114,95c-70.1,57.5-92,80.9-87,102c1.4,6.1,5.5,13.5,46,35c71.3,37.9,103.2,38.6,138,71
	c11,10.3,22.2,23.6,32,41"/>
</svg>
