<?xml version="1.0" encoding="utf-8"?>
<!-- Generator: Adobe Illustrator 23.0.3, SVG Export Plug-In . SVG Version: 6.00 Build 0)  -->
<svg version="1.2" baseProfile="tiny" id="Слой_1"
	 xmlns="http://www.w3.org/2000/svg" xmlns:xlink="http://www.w3.org/1999/xlink" x="0px" y="0px" viewBox="0 0 500 500"
	 xml:space="preserve">
<path fill="#FFFFFF" d="M227.5,261h-68c-19.6,0-35.5-15.9-35.5-35.5v-68c0-19.6,15.9-35.5,35.5-35.5h68c19.6,0,35.5,15.9,35.5,35.5
	v68C263,245.1,247.1,261,227.5,261z"/>
<path fill="#726D6D" d="M220.3,240h-53.6c-10.9,0-19.7-8.8-19.7-19.7v-57.6c0-10.9,8.8-19.7,19.7-19.7h53.6
	c10.9,0,19.7,8.8,19.7,19.7v57.6C240,231.2,231.2,240,220.3,240z"/>
</svg>
